<mxfile host="app.diagrams.net" modified="2024-11-05T05:52:41.132Z" agent="Mozilla/5.0 (Windows NT 10.0; Win64; x64) AppleWebKit/537.36 (KHTML, like Gecko) Chrome/130.0.0.0 Safari/537.36" version="21.8.2" etag="s5KzrOS-sFv7xpq1lVQm" type="github">
  <diagram name="第 1 页" id="MlGkOc0rK8qGBOlLQdbf">
    <mxGraphModel>
      <root>
        <mxCell id="0" />
        <mxCell id="1" parent="0" />
      </root>
    </mxGraphModel>
  </diagram>
</mxfile>
